<svg data-v-fde0c5aa="" xmlns="http://www.w3.org/2000/svg" viewBox="0 0 300 300" class="iconAbove"><!----><defs data-v-fde0c5aa=""><!----></defs><rect data-v-fde0c5aa="" fill="#01252C" x="0" y="0" width="300px" height="300px" class="logo-background-square"></rect><defs data-v-fde0c5aa=""><!----></defs><g data-v-fde0c5aa="" id="17c4a5d2-f09a-4ec6-b6ad-0f32a5e39205" fill="#FFFFFF" transform="matrix(5.951018726767694,0,0,5.951018726767694,14.58457280256972,150.01396319816754)"><path d="M3.29 11.24L3.29 12.95Q3.49 13.01 3.79 13.03Q4.10 13.05 4.38 13.05L4.38 13.05Q4.94 13.05 5.31 12.82Q5.68 12.59 5.68 12.10L5.68 12.10Q5.68 11.63 5.38 11.44Q5.07 11.24 4.44 11.24L4.44 11.24L3.29 11.24ZM3.29 7.88L3.29 9.53L4.31 9.53Q4.91 9.53 5.19 9.31Q5.46 9.09 5.46 8.65L5.46 8.65Q5.46 8.27 5.15 8.05Q4.83 7.83 4.20 7.83L4.20 7.83Q3.99 7.83 3.72 7.84Q3.44 7.85 3.29 7.88L3.29 7.88ZM4.20 14.92L4.20 14.92Q3.96 14.92 3.64 14.91Q3.32 14.90 2.98 14.85Q2.63 14.81 2.30 14.75Q1.96 14.69 1.68 14.57L1.68 14.57Q0.91 14.28 0.91 13.55L0.91 13.55L0.91 7.01Q0.91 6.72 1.07 6.56Q1.23 6.40 1.51 6.30L1.51 6.30Q1.99 6.13 2.70 6.06Q3.42 5.98 4.17 5.98L4.17 5.98Q5.96 5.98 6.93 6.58Q7.90 7.18 7.90 8.44L7.90 8.44Q7.90 9.07 7.53 9.53Q7.17 9.98 6.55 10.19L6.55 10.19Q7.25 10.39 7.72 10.91Q8.19 11.42 8.19 12.21L8.19 12.21Q8.19 13.59 7.16 14.26Q6.13 14.92 4.20 14.92ZM12.01 8.01L12.01 12.88Q12.17 12.91 12.39 12.93Q12.61 12.95 12.81 12.95L12.81 12.95Q13.29 12.95 13.69 12.81Q14.08 12.67 14.37 12.38Q14.66 12.08 14.82 11.61Q14.98 11.14 14.98 10.49L14.98 10.49Q14.98 9.23 14.39 8.59Q13.80 7.95 12.82 7.95L12.82 7.95Q12.63 7.95 12.43 7.97Q12.22 7.98 12.01 8.01L12.01 8.01ZM12.80 14.92L12.80 14.92Q12.56 14.92 12.25 14.91Q11.94 14.90 11.61 14.85Q11.28 14.81 10.96 14.75Q10.63 14.69 10.35 14.57L10.35 14.57Q9.58 14.28 9.58 13.55L9.58 13.55L9.58 7.01Q9.58 6.72 9.74 6.56Q9.90 6.40 10.18 6.30L10.18 6.30Q10.78 6.10 11.45 6.04Q12.12 5.98 12.66 5.98L12.66 5.98Q13.75 5.98 14.64 6.24Q15.53 6.51 16.16 7.06Q16.80 7.62 17.15 8.46Q17.50 9.30 17.50 10.44L17.50 10.44Q17.50 11.56 17.16 12.40Q16.83 13.23 16.21 13.80Q15.58 14.36 14.71 14.64Q13.85 14.92 12.80 14.92ZM25.76 11.30L25.76 11.30Q25.76 12.17 25.49 12.85Q25.23 13.52 24.75 13.99Q24.26 14.45 23.59 14.69Q22.92 14.92 22.09 14.92L22.09 14.92Q21.27 14.92 20.59 14.67Q19.92 14.42 19.44 13.95Q18.96 13.48 18.69 12.81Q18.42 12.14 18.42 11.30L18.42 11.30Q18.42 10.47 18.69 9.80Q18.96 9.13 19.44 8.66Q19.92 8.19 20.59 7.94Q21.27 7.69 22.09 7.69L22.09 7.69Q22.92 7.69 23.59 7.95Q24.26 8.20 24.75 8.67Q25.23 9.14 25.49 9.81Q25.76 10.49 25.76 11.30ZM20.86 11.30L20.86 11.30Q20.86 12.15 21.19 12.61Q21.52 13.06 22.11 13.06L22.11 13.06Q22.69 13.06 23.01 12.60Q23.32 12.14 23.32 11.30L23.32 11.30Q23.32 10.46 23.00 10.00Q22.68 9.55 22.09 9.55L22.09 9.55Q21.50 9.55 21.18 10.00Q20.86 10.46 20.86 11.30ZM30.72 14.49L30.72 14.49Q30.52 14.66 30.18 14.76Q29.85 14.87 29.39 14.87L29.39 14.87Q28.81 14.87 28.39 14.71Q27.97 14.55 27.83 14.25L27.83 14.25Q27.68 13.92 27.48 13.19Q27.27 12.46 27.08 11.59Q26.88 10.72 26.71 9.83Q26.53 8.93 26.43 8.25L26.43 8.25Q26.63 8.05 26.96 7.90Q27.29 7.76 27.68 7.76L27.68 7.76Q28.17 7.76 28.48 7.97Q28.80 8.19 28.87 8.72L28.87 8.72Q29.01 9.79 29.11 10.48Q29.20 11.17 29.27 11.61Q29.33 12.05 29.37 12.29Q29.40 12.52 29.43 12.66L29.43 12.66L29.48 12.66Q29.53 12.43 29.63 12.01Q29.74 11.58 29.88 11.03Q30.02 10.49 30.17 9.85Q30.32 9.21 30.48 8.58L30.48 8.58Q30.76 8.43 31.03 8.34Q31.30 8.26 31.71 8.26L31.71 8.26Q32.20 8.26 32.55 8.41Q32.90 8.57 33.00 8.89L33.00 8.89Q33.17 9.51 33.32 10.09Q33.47 10.67 33.60 11.17Q33.73 11.66 33.82 12.05Q33.92 12.43 33.96 12.66L33.96 12.66L34.03 12.66Q34.19 11.58 34.34 10.42Q34.48 9.25 34.61 8.05L34.61 8.05Q34.86 7.90 35.14 7.83Q35.42 7.76 35.70 7.76L35.70 7.76Q36.19 7.76 36.51 7.97Q36.83 8.18 36.83 8.69L36.83 8.69Q36.83 8.92 36.76 9.37Q36.69 9.81 36.58 10.37Q36.47 10.93 36.32 11.55Q36.18 12.17 36.03 12.74Q35.88 13.31 35.75 13.78Q35.62 14.24 35.52 14.49L35.52 14.49Q35.32 14.66 34.92 14.76Q34.51 14.87 34.05 14.87L34.05 14.87Q32.87 14.87 32.66 14.28L32.66 14.28Q32.58 14.03 32.45 13.64Q32.33 13.26 32.19 12.80Q32.05 12.33 31.92 11.84Q31.79 11.34 31.71 10.88L31.71 10.88Q31.61 11.37 31.47 11.89Q31.33 12.42 31.19 12.92Q31.04 13.41 30.91 13.83Q30.79 14.24 30.72 14.49ZM42.22 13.69L42.22 10.39Q42.22 9.95 41.98 9.75Q41.73 9.55 41.31 9.55L41.31 9.55Q41.03 9.55 40.76 9.62Q40.49 9.69 40.29 9.83L40.29 9.83L40.29 14.69Q40.15 14.73 39.85 14.77Q39.55 14.81 39.23 14.81L39.23 14.81Q38.92 14.81 38.68 14.77Q38.43 14.73 38.26 14.60Q38.09 14.48 38.00 14.26Q37.91 14.04 37.91 13.69L37.91 13.69L37.91 9.49Q37.91 9.11 38.07 8.88Q38.23 8.64 38.51 8.44L38.51 8.44Q38.99 8.11 39.71 7.90Q40.43 7.69 41.31 7.69L41.31 7.69Q42.90 7.69 43.75 8.38Q44.60 9.07 44.60 10.30L44.60 10.30L44.60 14.69Q44.46 14.73 44.16 14.77Q43.86 14.81 43.54 14.81L43.54 14.81Q43.23 14.81 42.99 14.77Q42.74 14.73 42.57 14.60Q42.41 14.48 42.32 14.26Q42.22 14.04 42.22 13.69L42.22 13.69Z"></path></g><defs data-v-fde0c5aa=""><!----></defs><g data-v-fde0c5aa="" id="7df89e63-04ed-4525-9210-5d8852450986" stroke="none" fill="#88DF95" transform="matrix(3.3251319122181293,0,0,3.3251319122181293,96.79788940450993,61.196834106764896)"><path d="M0 16.024L15.976 32 32 15.976 16.024 0 0 16.024zm15.989 7.323l-7.336-7.336 14.694-.022-7.358 7.358z"></path></g><!----></svg>